<?xml version="1.0" standalone="no"?>
<!DOCTYPE svg PUBLIC "-//W3C//DTD SVG 20010904//EN"
 "http://www.w3.org/TR/2001/REC-SVG-20010904/DTD/svg10.dtd">
<svg version="1.0" xmlns="http://www.w3.org/2000/svg"
 width="512.000000pt" height="512.000000pt" viewBox="0 0 512.000000 512.000000"
 preserveAspectRatio="xMidYMid meet">
<metadata>
Created by potrace 1.11, written by Peter Selinger 2001-2013
</metadata>
<g transform="translate(0.000000,512.000000) scale(0.100000,-0.100000)"
fill="#000000" stroke="none">
<path d="M634 4203 c-1 -225 -2 -570 -3 -768 -1 -198 -2 -367 -2 -375 1 -13
14 -16 60 -15 33 0 63 3 66 7 7 6 9 203 15 1141 2 212 6 297 14 298 6 0 173 0
371 -1 1349 -6 1661 -8 1670 -10 6 -1 15 -1 20 0 6 1 42 1 80 0 39 -1 363 -3
720 -5 358 -2 664 -4 680 -4 l30 -1 -2 -777 c-1 -428 -2 -829 -3 -890 l0 -113
-116 0 c-64 0 -114 -4 -112 -8 2 -5 68 -122 147 -261 104 -184 147 -249 155
-241 6 6 22 31 36 55 14 25 78 135 143 245 64 110 117 202 117 204 0 2 -46 3
-102 4 -57 0 -110 1 -118 1 -13 1 -15 103 -13 868 1 478 4 903 6 946 2 51 0
80 -7 83 -6 2 -461 6 -1011 9 -550 3 -1414 8 -1920 10 l-921 6 0 -408z"/>
<path d="M676 2917 c-10 -17 -27 -47 -37 -64 -10 -18 -68 -119 -129 -223 -60
-105 -110 -193 -110 -195 0 -2 35 -4 78 -4 42 0 93 0 112 0 l35 -1 -1 -960 -1
-960 51 0 c28 0 898 -2 1934 -3 l1882 -3 1 125 c0 70 2 320 4 556 4 505 6 784
5 840 l0 40 -67 0 -68 0 -2 -105 c-1 -58 -4 -355 -7 -660 -2 -305 -5 -578 -5
-607 l-1 -51 -277 -2 c-153 0 -316 -1 -363 0 -47 0 -727 1 -1512 3 -784 1
-1430 5 -1433 9 -9 9 -10 832 -1 847 4 6 2 11 -4 11 -6 0 -8 4 -5 10 3 5 6
212 6 460 l-1 450 58 1 c31 0 85 0 120 -1 34 -1 62 1 62 4 0 2 -47 87 -105
186 -58 100 -105 186 -105 191 0 5 -4 9 -10 9 -5 0 -10 4 -10 9 0 12 -63 121
-70 121 -3 0 -13 -15 -24 -33z"/>
</g>
</svg>
